<svg class="icon" viewBox="0 0 1024 1024" version="1.1" xmlns="http://www.w3.org/2000/svg"
     width="13" height="13">
    <path d="M794.48064 223.31392l-138.24 0 0-66.68288c0-19.7632-16.0768-35.84-35.84-35.84l-409.6 0c-19.7632 0-35.84 16.0768-35.84 35.84l0 579.55328c0 19.7632 16.0768 35.84 35.84 35.84l138.24 0 0 66.68288c0 19.7632 16.0768 35.84 35.84 35.84l409.6 0c19.7632 0 35.84-16.0768 35.84-35.84L830.32064 259.15392C830.32064 239.39072 814.24384 223.31392 794.48064 223.31392zM210.80064 741.30432c-2.816 0-5.12-2.29376-5.12-5.12L205.68064 156.63104c0-2.82624 2.304-5.12 5.12-5.12l409.6 0c2.816 0 5.12 2.29376 5.12 5.12l0 66.68288 0 512.8704c0 2.82624-2.304 5.12-5.12 5.12L210.80064 741.30432zM799.60064 838.69696c0 2.82624-2.304 5.12-5.12 5.12l-409.6 0c-2.816 0-5.12-2.29376-5.12-5.12l0-64.57344 240.64 0c19.7632 0 35.84-16.0768 35.84-35.84l0-2.10944 0-8.7552 73.3696 0c8.47872 0 15.36-6.87104 15.36-15.36s-6.88128-15.36-15.36-15.36l-73.3696 0 0-75.08992 73.3696 0c8.47872 0 15.36-6.87104 15.36-15.36s-6.88128-15.36-15.36-15.36l-73.3696 0 0-76.8 73.3696 0c8.47872 0 15.36-6.87104 15.36-15.36s-6.88128-15.36-15.36-15.36l-73.3696 0L656.24064 409.6l20.44928 0c8.47872 0 15.36-6.87104 15.36-15.36s-6.88128-15.36-15.36-15.36l-20.44928 0L656.24064 254.03392l138.24 0c2.816 0 5.12 2.29376 5.12 5.12L799.60064 838.69696zM245.76 274.39104c0-8.48896 6.88128-15.36 15.36-15.36l249.16992 0c8.47872 0 15.36 6.87104 15.36 15.36s-6.88128 15.36-15.36 15.36L261.12 289.75104C252.64128 289.75104 245.76 282.88 245.76 274.39104zM578.57024 378.88c0 8.48896-6.88128 15.36-15.36 15.36L261.12 394.24c-8.47872 0-15.36-6.87104-15.36-15.36s6.88128-15.36 15.36-15.36l302.09024 0C571.68896 363.52 578.57024 370.39104 578.57024 378.88zM578.57024 486.4c0 8.48896-6.88128 15.36-15.36 15.36L261.12 501.76c-8.47872 0-15.36-6.87104-15.36-15.36s6.88128-15.36 15.36-15.36l302.09024 0C571.68896 471.04 578.57024 477.91104 578.57024 486.4zM578.57024 592.20992c0 8.48896-6.88128 15.36-15.36 15.36L261.12 607.56992c-8.47872 0-15.36-6.87104-15.36-15.36s6.88128-15.36 15.36-15.36l302.09024 0C571.68896 576.84992 578.57024 583.7312 578.57024 592.20992z"
          fill="#020202"></path>
</svg>