<svg class="icon" viewBox="0 0 1024 1024" version="1.1" xmlns="http://www.w3.org/2000/svg"
     width="13" height="13">
    <path d="M512 0c282.760533 0 512 229.239467 512 512 0 282.760533-229.239467 512-512 512-282.760533 0-512-229.239467-512-512C0 229.239467 229.239467 0 512 0z m0 53.896533C259.003733 53.896533 53.896533 259.003733 53.896533 512c0 252.996267 205.1072 458.103467 458.103467 458.103467 252.996267 0 458.103467-205.1072 458.103467-458.103467 0-252.996267-205.1072-458.103467-458.103467-458.103467z m161.6896 282.965334v336.827733H336.827733V336.827733h336.861867z"
          fill="#ED4A1E"></path>
</svg>