<svg t="1710387888894" class="icon" viewBox="0 0 1024 1024" version="1.1" xmlns="http://www.w3.org/2000/svg" p-id="15241" width="13" height="13"><path d="M890.88 629.92384c-2.43712-2.70336-59.63776-66.49856-85.31968-80.62976-7.08608-3.8912-13.39392-5.4272-23.04-7.72096-5.79584-1.39264-13.04576-3.11296-22.75328-5.91872-3.76832-1.08544-8.35584-2.99008-13.39392-5.07904-10.07616-4.15744-22.28224-9.17504-33.83296-10.38336-2.1504-7.43424-5.28384-25.12896 5.20192-46.4896 6.92224-5.9392 42.27072-37.10976 54.4768-66.12992 6.5536 4.79232 17.24416 10.30144 33.792 13.37344 7.39328 7.45472 36.92544 34.54976 59.71968 15.6672 5.24288-4.23936 13.08672-10.62912 13.16864-21.31968 0.08192-9.9328-6.92224-20.64384-21.31968-32.74752-23.12192-19.39456-51.99872-63.7952-56.68864-71.12704l-8.23296-39.91552a6.92224 6.92224 0 0 0-5.59104-5.38624 6.79936 6.79936 0 0 0-7.04512 3.25632l-23.87968 40.0384c-15.03232-0.55296-64.59392 4.38272-138.19904 77.43488-14.9504 14.848-44.2368 30.80192-77.88544 26.76736-7.24992-0.86016-17.08032-0.90112-27.52512-0.96256-15.99488-0.08192-34.16064-0.18432-43.56096-3.29728l-2.68288-0.88064c-24.28928-8.13056-60.76416-20.3776-105.3696 4.23936-20.04992-2.1504-159.47776-12.71808-203.40736 103.85408a6.84032 6.84032 0 0 0 8.15104 9.07264c5.03808-1.31072 113.0496-29.63456 164.5568-64.43008-4.83328 9.03168-13.55776 30.208-12.43136 64.47104 0 0.1024 0.24576 11.89888-38.15424 35.00032-1.29024 1.06496-31.80544 26.37824-49.11104 46.51008-4.75136 5.55008-15.52384 13.45536-25.92768 21.07392-15.44192 11.3664-25.47712 18.92352-29.71648 25.62048a24.08448 24.08448 0 0 1-5.91872 0.3072 6.81984 6.81984 0 0 0-5.12-3.60448c-8.6016-1.24928-26.7264 1.7408-32.8704 21.77024-3.15392 3.9936-9.03168 13.1072-4.44416 20.72576 2.88768 4.85376 8.43776 6.4512 14.88896 6.4512 5.3248 0 11.28448-1.10592 16.87552-2.41664 0.47104-0.16384 10.52672-3.50208 18.28864-8.3968 11.59168 1.536 30.76096-1.10592 38.31808-20.3776 6.79936-6.53312 44.19584-41.6768 78.15168-59.0848l0.9216-0.49152a150.3232 150.3232 0 0 0-7.72096 43.19232l-1.39264 59.0848a16.09728 16.09728 0 0 0 2.27328 10.69056c3.9936 6.7584 12.43136 11.85792 25.12896 15.17568a7.00416 7.00416 0 0 0-0.12288 1.3312c-0.16384 6.16448 5.36576 11.3664 19.7632 18.55488 1.1264 0.57344 4.68992 1.1264 8.99072 1.1264 7.24992 0 16.71168-1.57696 20.80768-7.2704 2.88768-3.9936 4.36224-10.71104-4.64896-20.21376-2.51904-5.67296-13.5168-27.38176-32.99328-31.5392l-1.80224-33.40288c0-0.38912 2.3552-38.2976 29.5936-43.19232 3.6864-0.67584 8.15104-0.79872 13.08672-0.98304 20.2752-0.75776 50.4832-2.12992 60.84608-36.9664a130.90816 130.90816 0 0 0 21.36064-11.1616c8.192 4.38272 47.39072 23.67488 103.28064 23.67488 29.51168 0 63.56992-5.4272 99.92192-21.36064 0.24576-0.1024 0.28672-0.4096 0.47104-0.53248 2.80576 0.45056 5.55008 0.90112 8.51968 1.29024 14.31552 19.06688 81.55136 108.52352 98.03776 125.00992 2.3552 11.50976 9.99424 28.13952 26.43968 29.3888-0.75776 4.93568-0.67584 10.77248 2.43712 15.60576 2.31424 3.64544 7.24992 8.00768 17.28512 8.00768H828.04736c2.88768 0 12.12416-0.59392 15.19616-8.15104 3.52256-8.72448-4.68992-17.77664-12.00128-24.49408-0.47104-0.47104-47.84128-47.65696-65.31072-72.92928-5.24288-7.53664-11.83744-19.49696-18.88256-32.1536-7.63904-13.86496-15.48288-27.91424-22.6304-38.4 12.32896 0.26624 30.72 1.10592 47.39072 3.74784 9.03168 1.4336 22.24128 8.64256 35.00032 15.62624l4.11648 2.2528c4.07552 6.90176 17.83808 28.38528 35.47136 33.81248-0.4096 4.85376 0.08192 11.12064 3.80928 16.32256 2.7648 3.85024 8.35584 8.3968 19.51744 8.3968h0.04096l16.75264-0.69632c4.32128-0.47104 10.0352-2.99008 12.00128-8.54016 3.01056-8.51968-5.20192-16.73216-7.63904-19.1488z m-526.47936-22.30272a114.8928 114.8928 0 0 0-15.03232 1.18784c-37.96992 6.8608-40.7552 54.02624-40.83712 56.7296l2.08896 39.95648c0.2048 3.66592 3.23584 6.51264 6.88128 6.51264 16.9984 0 27.32032 24.71936 27.4432 24.9856a6.61504 6.61504 0 0 0 1.47456 2.2528c1.76128 1.7408 2.68288 3.01056 3.19488 3.82976-3.072 1.1264-9.95328 1.47456-11.55072 1.47456h-0.04096a63.44704 63.44704 0 0 1-11.24352-6.69696l0.04096-0.86016c0-3.72736-0.47104-8.97024-4.75136-11.61216a8.62208 8.62208 0 0 0-3.6864-1.04448c-16.65024-3.7888-20.04992-9.4208-20.04992-10.56768a8.4992 8.4992 0 0 0 0.24576-1.7408l1.4336-59.67872a139.0592 139.0592 0 0 1 12.16512-52.4288c0-0.04096-0.04096-0.08192 0-0.14336 6.84032-2.90816 13.88544-4.97664 19.08736-3.584 17.08032 4.44416 47.84128 2.90816 76.88192-5.57056-9.78944 15.48288-27.58656 16.40448-43.74528 16.9984z m390.20544 48.9472c18.24768 26.3168 64.96256 72.88832 67.11296 75.0592 4.83328 4.42368 6.9632 7.24992 7.8848 8.82688a9.25696 9.25696 0 0 1-1.88416 0.14336h-24.20736c-1.72032 0-4.75136-0.22528-5.71392-1.69984-1.59744-2.49856-0.12288-8.99072 1.55648-12.73856a6.92224 6.92224 0 0 0-0.63488-6.79936 6.5536 6.5536 0 0 0-6.16448-2.88768l-7.2704 0.59392c-11.28448 0-14.72512-20.04992-14.76608-20.25472a7.10656 7.10656 0 0 0-2.56-4.38272c-7.35232-5.71392-55.84896-68.8128-90.27584-114.56512 8.97024 0.47104 18.67776 0.6144 29.40928 0.28672 7.80288 8.82688 18.47296 27.93472 27.9552 45.11744 7.18848 12.94336 13.94688 25.1904 19.5584 33.30048z m114.87232-11.93984c-4.07552 0-6.79936-0.90112-8.11008-2.6624-2.19136-3.01056-1.20832-9.25696-0.4096-11.776 0.7168-2.10944 0.36864-4.4032-0.9216-6.18496s-3.35872-2.84672-5.59104-2.84672c-13.12768 0-28.24192-22.03648-32.48128-29.75744a6.79936 6.79936 0 0 0-2.7648-2.72384l-5.8368-3.1744c-14.39744-7.8848-27.99616-15.33952-39.40352-17.14176-29.04064-4.608-62.48448-4.03456-64-3.9936a308.8384 308.8384 0 0 1-45.52704-1.2288 5.9392 5.9392 0 0 0-1.16736-0.16384c-53.51424-6.144-64.55296-27.09504-65.39264-28.83584a6.8608 6.8608 0 0 0-13.1072 4.01408c0.04096 0.28672 6.12352 19.72224 42.96704 31.47776-80.19968 28.20096-146.92352 3.93216-168.28416-5.71392 15.64672-14.37696 22.8352-32.07168 20.39808-51.42528a6.77888 6.77888 0 0 0-7.68-5.95968 6.84032 6.84032 0 0 0-5.95968 7.68c1.92512 15.36-3.80928 29.02016-16.9984 40.61184-29.45024 25.86624-88.84224 34.7136-114.52416 28.03712-14.4384-3.70688-32.01024 5.71392-43.60192 11.93984l-4.32128 2.29376c-39.19872 20.11136-80.83456 60.84608-82.59584 62.5664a7.2704 7.2704 0 0 0-1.67936 2.6624c-5.59104 16.34304-23.87968 12.94336-26.0096 12.4928a6.81984 6.81984 0 0 0-5.5296 1.16736c-6.08256 4.42368-16.4864 7.9872-16.40448 7.9872-9.3184 2.1504-13.68064 2.02752-15.68768 1.7408 0.63488-1.55648 2.08896-3.87072 3.52256-5.55008a6.67648 6.67648 0 0 0 1.39264-2.70336c2.9696-10.9568 10.71104-13.04576 15.19616-13.29152a11.8784 11.8784 0 0 0 2.00704 1.6384c6.47168 4.01408 17.2032 1.65888 20.31616 0.86016a6.67648 6.67648 0 0 0 4.9152-4.87424c1.55648-4.07552 16.60928-15.09376 26.5216-22.38464 11.53024-8.45824 22.40512-16.46592 28.20096-23.20384 16.40448-19.10784 46.75584-44.27776 46.592-44.27776 43.08992-25.8048 45.03552-42.47552 43.76576-48.61952-1.00352-39.23968 12.92288-58.71616 12.92288-58.71616 6.00064-7.55712 11.63264-16.1792 7.2704-22.81472-3.03104-4.58752-8.76544-4.97664-13.16864-3.76832a6.656 6.656 0 0 0-2.9696 1.69984c-31.27296 30.26944-124.3136 58.88-159.51872 68.9152 48.92672-100.37248 184.07424-82.18624 185.48736-81.98144a6.67648 6.67648 0 0 0 4.4032-0.83968c40.12032-23.01952 72.51968-12.16512 96.1536-4.25984l2.68288 0.88064c11.53024 3.80928 30.0032 3.91168 47.84128 3.9936 10.0352 0.04096 19.51744 0.08192 25.96864 0.86016 38.44096 4.54656 71.24992-12.82048 89.1904-30.67904 81.79712-81.14176 130.39616-73.27744 130.80576-73.216a6.94272 6.94272 0 0 0 7.31136-3.19488l17.03936-28.59008 4.9152 23.8592a6.656 6.656 0 0 0 0.9216 2.27328c1.31072 2.12992 33.32096 52.89984 60.12928 75.3664 14.35648 12.02176 16.44544 19.02592 16.40448 22.1184 0 3.91168-3.35872 6.92224-9.15456 11.6736-14.52032 11.8784-41.20576-16.65024-41.472-16.93696a6.79936 6.79936 0 0 0-3.91168-2.12992c-27.32032-4.56704-35.79904-16.4864-35.79904-16.50688a6.69696 6.69696 0 0 0-7.12704-3.05152 6.90176 6.90176 0 0 0-5.44768 5.50912c-4.44416 24.20736-40.79616 58.9824-54.39488 70.3488a6.71744 6.71744 0 0 0-1.72032 2.1504c-17.63328 34.57024-5.24288 62.27968-4.7104 63.42656a6.88128 6.88128 0 0 0 6.2464 3.9936c10.19904 0 22.60992 5.12 33.52576 9.6256 5.55008 2.27328 10.6496 4.36224 14.848 5.57056 9.99424 2.8672 17.44896 4.64896 23.36768 6.06208 9.1136 2.17088 14.15168 3.39968 19.59936 6.38976 23.63392 13.02528 81.16224 77.12768 82.00192 78.0288 2.12992 2.12992 3.19488 3.64544 3.85024 4.62848l-15.29856 0.63488z" fill="#d81e06" p-id="15242"></path></svg>