<svg class="icon" viewBox="0 0 1024 1024" version="1.1" xmlns="http://www.w3.org/2000/svg" width="16" height="16">
    <path d="M512 8.96C234.17856 8.96 8.96 234.17856 8.96 512s225.21856 503.04 503.04 503.04 503.04-225.21856 503.04-503.04S789.82144 8.96 512 8.96z m0 955.776c-250.0352 0-452.736-202.69568-452.736-452.736 0-250.0352 202.69568-452.736 452.736-452.736S964.736 261.95968 964.736 512 762.04032 964.736 512 964.736z"
          fill="#F4AF3D"></path>
    <path d="M231.2704 746.17856V284.20608c0-11.19232 2.17088-21.7344 6.51776-31.64672 4.352-9.9072 12.10368-19.64032 23.2704-29.20448 11.1616-9.55904 27.20768-14.336 48.128-14.336h113.88416c10.10688 0 21.39136 2.5088 33.84832 7.51616 12.46208 5.0176 20.9152 13.58336 25.38496 25.70752 4.46464 12.12416 6.81472 23.19872 7.05536 33.22368v424.20224l33.22368-5.9392c14.68416-2.57024 23.42912 4.4288 26.22464 20.98176 2.80064 16.54784-6.29248 26.80832-27.27424 30.78144L209.94048 805.9904c-7.69024 1.61792-14.51008-0.24064-20.45952-5.60128-5.94432-5.37088-8.91904-12.70784-8.91904-22.03136 0-6.76864 2.03776-12.76928 6.1184-18.01216 4.07552-5.248 8.56576-8.34048 13.46048-9.27232l31.1296-4.89472z m51.06176-367.8976H433.408v-84.9408c0-5.4272-0.53248-10.496-1.5872-15.21664-1.05984-4.71552-3.52256-8.89856-7.3984-12.56448-3.87072-3.65568-10.624-5.48352-20.24448-5.48352H315.43296c-14.79168 0-24.00256 3.072-27.64288 9.20064-3.6352 6.13888-5.45792 13.568-5.45792 22.29248v86.71232z m0 51.06176v114.00704H433.408V429.34272H282.33216z m0 309.1456l151.07584-26.9312v-114.01216H282.33216v140.94336z m248.29952-399.0272c-5.59616 0-11.07456-2.59072-16.4352-7.77216-5.36576-5.18144-8.2176-11.91424-8.57088-20.20864-0.34816-8.2944 2.0992-15.26272 7.3472-20.91008 5.24288-5.63712 11.24352-8.45824 18.01216-8.45824h91.62752V208.67072c0-6.52288 2.80064-12.52864 8.41216-18.01216 5.61152-5.47328 12.66176-8.2176 21.14048-8.2176 8.46848 0.23552 15.51872 3.20512 21.13024 8.91904 5.61152 5.71904 8.4224 11.48928 8.4224 17.31072V282.112h83.23072c17.24928 0 30.3104 1.19808 39.168 3.60448s16.49152 6.7584 22.912 13.056c6.41024 6.29248 10.5984 15.70304 12.59008 28.21632 1.9712 12.51328 3.08224 29.96224 3.31776 52.34688l2.0992 97.92c0.2304 19.81952 0 53.03808-0.70144 99.66592-0.70144 41.96864-2.45248 79.04256-5.248 111.21152-2.80064 32.1792-8.91904 56.70912-18.36032 73.62048-9.44128 16.90112-19.88096 30.06976-31.29856 39.52128-11.4176 9.44128-31.01184 14.39232-58.752 14.85824-16.78848 0.4608-33.43872-1.2288-49.96096-5.0688-16.512-3.85024-27.58144-8.11008-33.18784-12.76928-5.62176-4.6592-9.0624-11.31008-10.31168-19.93216-1.25952-8.63232 0.9216-15.50848 6.528-20.62848 5.61152-5.14048 11.50976-8.27904 17.69984-9.45152 4.80256-0.70144 12.88192-0.16896 24.22784 1.58208 11.3408 1.75104 21.91872 2.72896 31.70816 2.9696 10.96192 0.70144 22.67136-1.0496 35.1488-5.248 12.47232-4.18816 20.98176-19.40992 25.52832-45.62944 4.54144-26.22976 7.51104-61.0816 8.9088-104.57088 1.39776-43.47904 2.16064-76.75904 2.2784-99.84 0.10752-23.08608 0.0512-46.27968-0.1792-69.59616-0.47104-22.60992-1.17248-41.2672-2.0992-55.95648s-3.49184-23.72096-7.69024-27.10528c-4.1984-3.37408-9.91232-5.18656-17.14176-5.42208h-82.48832c-0.6912 24.94976-1.3824 48.8448-2.06848 71.69536s-1.88928 51.00032-3.59936 84.4544c-1.72032 33.4592-4.00896 63.88736-6.88128 91.27936-2.86208 27.40224-6.9888 53.16096-12.36992 77.29152s-12.53888 45.16864-21.49888 63.11936c-8.94464 17.95072-20.23936 36.0192-33.87904 54.21056-13.63968 18.18112-24.77568 30.64832-33.39776 37.42208-8.6272 6.7584-17.2544 10.42944-25.8816 11.008s-15.55968-1.81248-20.80256-7.168-8.10496-11.65824-8.56576-18.88256c-0.47104-7.22944 0.87552-13.63968 4.02432-19.24096 3.1488-5.59104 13.93152-18.70848 32.34816-39.34208 18.41152-20.62848 32.22528-43.648 41.44128-69.0688 9.21088-25.41056 15.616-53.90848 19.23072-85.49888s6.81984-66.03776 9.62048-103.3472c2.80064-37.2992 4.31104-65.62304 4.55168-84.98176l0.70144-62.9504h-91.98592z"
          fill="#F4AF3D"></path>
</svg>