<svg t="1710382521567" class="icon" viewBox="0 0 1024 1024" version="1.1" xmlns="http://www.w3.org/2000/svg" p-id="3495"
     data-spm-anchor-id="a313x.search_index.0.i10.6fb33a81E64zUf" width="13" height="13">
    <path d="M749.28 496L401.6 278.24a19.12 19.12 0 0 0-30.48 16v435.28a19.12 19.12 0 0 0 30.48 16L749.28 528a17.76 17.76 0 0 0 0-32z"
          fill="#8a8a8a" p-id="3496" data-spm-anchor-id="a313x.search_index.0.i8.6fb33a81E64zUf"
          class="selected"></path>
    <path d="M512 1024a512 512 0 1 1 512-512 512.56 512.56 0 0 1-512 512zM512 25.04A486.96 486.96 0 1 0 998.96 512 487.52 487.52 0 0 0 512 25.04z"
          fill="#8a8a8a" p-id="3497" data-spm-anchor-id="a313x.search_index.0.i9.6fb33a81E64zUf" class=""></path>
</svg>