<svg  class="icon" viewBox="0 0 1024 1024" version="1.1" xmlns="http://www.w3.org/2000/svg"
      width="26" height="26">
    <path d="M469.99552 349.696c16.85504 5.632 54.51776 2.41664 72.58112 4.58752 36.864 4.4032 67.97312-13.18912 83.70176-28.7744 86.46656-85.83168 137.27744-75.20256 137.27744-75.20256l12.41088-31.37536 11.14112 18.96448 6.53312-16.34304 4.58752 26.15296 59.51488 71.2704s-26.8288-19.61984-0.67584 2.62144c26.17344 22.20032 7.20896 44.4416 7.20896 44.4416-18.96448 17.65376-50.9952-17.63328-50.9952-17.63328-31.39584-5.24288-40.52992-19.61984-40.52992-19.61984-5.89824 32.0512-56.87296 74.5472-56.87296 74.5472-16.36352 32.03072-4.608 57.5488-4.608 57.5488 17.01888 0 47.75936 20.2752 47.75936 20.2752 26.80832-0.65536 44.46208 13.06624 44.46208 13.06624l86.30272 74.5472c14.70464 14.72512 0 16.34304 0 16.34304l-16.34304 0.65536c-22.89664 0-15.03232-23.53152-15.03232-23.53152-20.2752 0-38.58432-33.34144-38.58432-33.34144-15.72864-8.4992-43.15136-19.61984-43.15136-19.61984-50.36032-16.34304-62.7712-3.91168-62.7712-3.91168 13.74208 13.06624 46.44864 82.39104 46.44864 82.39104 11.75552 26.15296 69.95968 73.23648 69.95968 73.23648 23.53152 21.58592 1.31072 20.93056 1.31072 20.93056h-24.22784c-21.56544 0-10.4448-24.20736-10.4448-24.20736l-7.84384 0.65536c-17.65376 0-21.6064-26.15296-21.6064-26.15296-11.776-9.15456-91.5456-110.51008-91.5456-110.51008-13.74208-22.2208-24.86272-18.30912-24.86272-18.30912-96.11264 24.18688-166.07232-6.53312-166.07232-6.53312-48.39424-26.15296-60.8256-13.06624-60.8256-13.06624-10.46528 41.18528-70.61504 66.02752-70.61504 66.02752-30.72 13.7216-35.30752 49.70496-35.30752 49.70496l0.63488 45.11744c12.43136 1.31072 35.328 24.20736 35.328 24.20736 18.96448 18.96448-15.0528 16.9984-16.36352 16.34304-21.66784-10.83392-15.01184-13.74208-15.01184-13.74208 0-7.18848-2.62144-5.87776-2.62144-5.87776-29.40928-6.53312-19.61984-20.91008-19.61984-20.91008l0.65536-58.20416c0.65536-30.72 11.10016-41.18528 11.10016-41.18528 23.53152-12.41088 23.53152-21.58592 23.53152-21.58592-11.75552-7.84384-43.15136 13.7216-43.15136 13.7216-39.85408 17.65376-81.08032 61.46048-81.08032 61.46048-7.82336 22.89664-34.01728 17.01888-34.01728 17.01888-7.168 5.2224-18.944 9.15456-18.944 9.15456-39.87456 9.17504-18.98496-15.03232-18.98496-15.03232 14.39744-22.2208 31.39584-18.30912 31.39584-18.30912 1.31072 6.53312 11.12064 2.60096 11.12064 2.60096 2.62144-10.46528 56.23808-48.37376 56.23808-48.37376 11.75552-23.552 48.37376-45.7728 48.37376-45.7728 45.7728-27.46368 40.52992-41.84064 40.52992-41.84064-1.29024-43.15136 14.37696-64.08192 14.37696-64.08192 15.72864-19.61984 1.3312-15.70816 1.3312-15.70816-40.52992 39.23968-176.55808 74.5472-176.55808 74.5472 45.7728-121.61024 198.7584-99.38944 198.7584-99.38944 44.52352-25.55904 79.83104-12.24704 104.69376-3.9936z"
          fill="#d81e06" ></path>
</svg>