<svg class="icon" viewBox="0 0 1024 1024" version="1.1" xmlns="http://www.w3.org/2000/svg"
     width="26" height="26">
    <path d="M597.7088 682.3936h-24.86272c-29.34784 0-20.29568-21.8112-20.29568-21.8112-20.60288 2.78528-69.07904-17.85856-93.02016-28.81536 1.8432-6.43072 4.21888-16.24064 5.9392-28.03712 24.2688 14.86848 104.40704 41.79968 104.40704 41.79968 33.09568 15.0528 27.83232 36.864 27.83232 36.864z m250.73664-365.91616c-11.6736-10.01472-36.88448-33.62816-47.43168-39.13728l-15.0528-26.86976-6.77888 26.86976-17.3056-26.35776-0.75776 37.90848s-110.16192-25.33376-179.95776 106.65984c0 0-69.26336 9.03168-108.4416-4.52608 0 0-88.84224-45.17888-164.12672 18.06336 0 0-147.57888 97.8944-182.19008 22.60992 0 0-6.0416 97.87392 91.83232 78.29504 0 0 66.33472-14.78656 79.36-60.416-2.31424 7.29088-10.9568 46.51008 49.39776 99.84 15.0528 13.25056 45.1584 44.42112 45.1584 44.42112s7.53664 48.96768 29.3888 77.29152c0 0 69.26336 73.78944 87.3472 79.79008 0 0-13.66016 22.60992 23.3472 22.60992h19.57888s11.30496-5.26336-10.5472-26.35776c0 0-75.01824-61.5424-94.12608-87.3472-5.18144-6.9632-12.06272-24.84224-1.49504-34.6112a136.66304 136.66304 0 0 0 11.42784-42.84416 51.24096 51.24096 0 0 1 0.65536-9.46176c1.06496-47.77984-25.06752-80.09728-25.06752-80.09728 23.08096 18.65728 31.98976 44.66688 34.24256 69.632a15.13472 15.13472 0 0 1 6.57408 1.76128c31.15008 15.23712 75.40736 22.85568 135.168 16.40448-13.5168-21.68832-21.0944-50.688-21.0944-50.688 14.2336 29.184 27.11552 43.45856 35.90144 50.60608 9.37984 4.93568 45.52704 23.51104 67.64544 28.09856 0 0 15.81056 28.61056-51.93728 25.6 0 0 7.51616-21.07392-30.12608-21.07392-15.81056 0-30.12608 6.02112 11.28448 33.13664 0 0 18.08384 15.03232 46.6944 3.76832 0 0 94.88384-13.55776 42.92608-57.22112 0 0-44.62592-25.6-0.75776-25.6 1.51552 0 34.63168-10.30144 56.48384-8.04864 0 0 15.79008-8.51968 12.04224 63.75424 0 0-7.53664 5.26336 0.73728 17.3056 0 0 1.51552 12.8-9.03168 9.03168 0 0-19.5584-1.49504 7.53664 25.6 0 0 13.55776 15.0528 16.5888-3.76832l2.99008-112.9472s5.3248-37.04832-35.38944-29.36832c-13.02528 2.43712-41.43104 16.1792-47.43168-23.83872-2.2528-15.0528-12.8-82.08384 54.96832-134.28736 0 0 36.16768 21.8112 70.02112 6.02112 0 0 30.86336 26.80832 51.2 3.01056 12.22656-14.31552 17.34656-12.67712-41.45152-63.22176z"
          fill="#d81e06"></path>
</svg>